#!OML:ASF E:\VariousWalksJay\Project 1\Capture day 1\Session 1\Actor2.ASF
:FULLY-SPECIFIED
:DEGREES
882
root -13.524 16.3056 40.414 27.5572 -47.2457 -8.24877
lowerback 22.0435 -4.23479 5.39432
upperback 13.7846 -5.13579 -3.47981
thorax 2.1288 -2.32846 -5.77819
lowerneck 2.18108 4.50454 1.9648
upperneck -16.029 6.49993 1.79216
head -5.18013 2.91476 -0.0932896
rclavicle 1.43125e-014 -8.11041e-014
rhumerus -38.517 17.8074 -89.4499
rradius 67.5969
rwrist 11.439
rhand -45.4995 12.0291
rfingers 7.12502
rthumb -18.2642 -17.1335
lclavicle 1.43125e-014 -8.11041e-014
lhumerus 8.21468 -40.8148 73.477
lradius 89.4543
lwrist 32.009
lhand -26.6616 -1.33579
lfingers 7.12502
lthumb -0.0932118 28.6439
rfemur -54.5601 8.9201 28.4154
rtibia 36.7857
rfoot -1.91817 -8.15171
rtoes 9.97557
lfemur -27.8573 7.37317 -22.305
ltibia 66.2786
lfoot -21.8231 -3.98854
ltoes -25.6378
883
root -13.5901 16.3326 40.489 27.6207 -47.1812 -8.37139
lowerback 22.1132 -4.23634 5.37843
upperback 13.7802 -5.13598 -3.43919
thorax 2.09424 -2.33247 -5.72064
lowerneck 2.24763 4.53422 2.00195
upperneck -16.0431 6.55485 1.84797
head -5.19674 2.93489 -0.0868801
rclavicle 3.49861e-014 5.64548e-014
rhumerus -38.6784 17.6379 -89.4334
rradius 67.1015
rwrist 11.3575
rhand -45.5126 12.3066
rfingers 7.12502
rthumb -18.2769 -16.8547
lclavicle 3.49861e-014 5.64548e-014
lhumerus 7.85957 -41.1455 73.827
lradius 89.3415
lwrist 31.8709
lhand -26.679 -1.59054
lfingers 7.12502
lthumb -0.110049 28.3892
rfemur -54.139 8.98487 28.4691
rtibia 36.798
rfoot -2.19187 -8.28795
rtoes 9.66211
lfemur -27.7439 7.56043 -22.0317
ltibia 66.7928
lfoot -21.8734 -3.80273
ltoes -25.1789
884
root -13.653 16.3554 40.558 27.713 -47.1633 -8.30885
lowerback 22.0181 -4.18302 5.29927
upperback 13.7592 -5.08258 -3.39744
thorax 2.13161 -2.31046 -5.64648
lowerneck 2.17069 4.44003 1.85528
upperneck -16.0121 6.43514 2.02496
head -5.18453 2.87369 -0.000191465
rclavicle -1.90833e-014 -8.34896e-014
rhumerus -38.7585 17.3882 -89.349
rradius 66.5959
rwrist 11.3163
rhand -45.6322 12.3658
rfingers 7.12502
rthumb -18.3919 -16.7848
lclavicle -1.90833e-014 -8.34896e-014
lhumerus 7.74337 -41.545 74.0642
lradius 89.1798
lwrist 31.6228
lhand -26.6404 -1.58828
lfingers 7.12502
lthumb -0.0727823 28.3914
rfemur -53.9396 9.02729 28.3655
rtibia 36.7766
rfoot -2.38851 -8.38419
rtoes 9.72142
lfemur -27.7955 7.79885 -21.9611
ltibia 67.2401
lfoot -22.0677 -3.18489
ltoes -26.3788
885
root -13.7134 16.3825 40.6224 27.8564 -47.1293 -8.3789
lowerback 21.9983 -4.22348 5.35101
upperback 13.7834 -5.12844 -3.46359
thorax 2.15406 -2.32646 -5.74009
lowerneck 2.12715 4.46147 1.90815
upperneck -16.0903 6.47549 2.07096
head -5.20163 2.88518 0.00354271
rclavicle 5.24792e-014 -3.26007e-014
rhumerus -38.8205 17.4391 -89.5191
rradius 66.3161
rwrist 11.2206
rhand -45.7512 12.0919
rfingers 7.12502
rthumb -18.5064 -17.0478
lclavicle 5.24792e-014 -3.26007e-014
lhumerus 7.65204 -41.8222 74.04
lradius 89.0271
lwrist 31.485
lhand -26.7435 -1.78361
lfingers 7.12502
lthumb -0.1724 28.1961
rfemur -53.6712 9.13714 28.3559
rtibia 36.7243
rfoot -2.5815 -8.55313
rtoes 9.2992
lfemur -27.8671 8.01811 -21.7407
ltibia 67.64
lfoot -22.095 -2.82021
ltoes -25.8603
886
root -13.7717 16.407 40.6867 28.1086 -47.1044 -8.43962
lowerback 21.8384 -4.31029 5.41601
upperback 13.7958 -5.23549 -3.51328
thorax 2.22293 -2.3708 -5.81727
lowerneck 2.03542 4.55155 1.78363
upperneck -16.1559 6.60462 2.17209
head -5.21432 2.94838 0.0497912
rclavicle 9.38264e-014 -3.02153e-014
rhumerus -38.9695 17.4162 -89.6136
rradius 66.3458
rwrist 11.3112
rhand -45.692 11.9918
rfingers 7.12502
rthumb -18.4494 -17.1533
lclavicle 9.38264e-014 -3.02153e-014
lhumerus 7.83876 -41.852 73.6576
lradius 88.95
lwrist 31.6318
lhand -26.8477 -1.72091
lfingers 7.12502
lthumb -0.273008 28.2587
rfemur -53.5243 9.1768 28.3788
rtibia 36.6632
rfoot -2.82248 -8.62548
rtoes 9.12383
lfemur -28.0344 8.15835 -21.5245
ltibia 68.0063
lfoot -22.1078 -2.70004
ltoes -25.1158
